<svg id="Light" xmlns="http://www.w3.org/2000/svg" viewBox="0 0 35 54"><defs><style>.cls-1{fill:none;}.cls-2{fill:#1d1d1f;}</style></defs><title>watch_os_large_</title><g id="watchOS"><rect id="boundingbox" class="cls-1" width="35" height="54"/><g id="icon"><path class="cls-2" d="M17.5,16a17,17,0,0,0,0,34,17,17,0,0,0,0-34ZM22,24.15a1.69,1.69,0,0,1,1.82,1.45H23a1,1,0,0,0-1-.73c-.7,0-1.13.55-1.13,1.47s.43,1.51,1.13,1.51a.93.93,0,0,0,1-.71h.82A1.67,1.67,0,0,1,22,28.56a2,2,0,0,1-2-2.22A1.94,1.94,0,0,1,22,24.15Zm-7.53.7c-.47,0-.79.18-.89.48h-.81c.09-.71.77-1.18,1.74-1.18s1.67.53,1.67,1.43v2.9h-.81v-.6h-.07a1.44,1.44,0,0,1-1.28.67,1.28,1.28,0,0,1-1.41-1.27c0-.76.57-1.2,1.58-1.26L15.31,26v-.38C15.31,25.11,15,24.85,14.44,24.85Zm-7.35-.61.76,3.27h.06l.88-3.27h.8l.88,3.27h.06l.76-3.27h.84L11,28.48h-.88l-.87-3.17H9.15l-.88,3.17H7.41L6.24,24.24Zm5.35,18.4c-3.3,0-5.36-2.31-5.36-6s2.06-6,5.36-6,5.35,2.32,5.35,6S15.73,42.64,12.44,42.64Zm5.08-15.28V24.92h-.68v-.67h.68V23.17h.84v1.08h.92v.67h-.92v2.24c0,.45.18.65.6.65a1.67,1.67,0,0,0,.32,0v.67a3.08,3.08,0,0,1-.46.05C17.89,28.51,17.52,28.18,17.52,27.36Zm5.67,15.28c-2.54,0-4.23-1.31-4.37-3.31h1.45c.17,1.24,1.33,2,3,2s2.72-.83,2.72-2c0-1-.64-1.62-2.26-2l-1.28-.28c-2.33-.51-3.34-1.56-3.34-3.21,0-1.92,1.69-3.27,4.1-3.27s4,1.39,4.06,3.36H25.82a2.36,2.36,0,0,0-2.65-2c-1.45,0-2.57.71-2.57,1.89,0,.92.62,1.55,2.21,1.9L24.1,36c2.42.53,3.38,1.49,3.38,3.14C27.48,41.29,25.79,42.64,23.19,42.64Zm5.26-14.16H27.6V25.93c0-.69-.31-1-.9-1A1,1,0,0,0,25.62,26v2.49h-.84V22.57h.84v2.34h.06a1.32,1.32,0,0,1,1.3-.75,1.4,1.4,0,0,1,1.47,1.57Z"/><path class="cls-2" d="M12.44,32c-2.38,0-3.87,1.81-3.87,4.68s1.49,4.66,3.87,4.66,3.86-1.81,3.86-4.66S14.81,32,12.44,32Z"/><path class="cls-2" d="M13.42,27.25c0,.39.33.62.79.62a1,1,0,0,0,1.1-1v-.37l-1,.07C13.68,26.65,13.42,26.86,13.42,27.25Z"/></g></g></svg>